<svg class="c-icon c-search-icon" viewBox="0 0 22.997 22" xmlns="http://www.w3.org/2000/svg">
  <path class="c-search-icon__handle" clip-rule="evenodd" d="M8.92 0C3.99 0 0 3.95 0 8.83s3.99 8.83 8.92 8.83c2.13 0 4.07-.74 5.61-1.97.07.12.13.25.24.35l5.55 5.51c.31.3.71.45 1.11.45.4 0 .8-.15 1.11-.46.61-.6.61-1.59 0-2.19l-5.55-5.51c-.16-.15-.33-.26-.52-.34.86-1.35 1.36-2.95 1.36-4.67C17.83 3.95 13.84 0 8.92 0zm0 2.72c3.4 0 6.17 2.74 6.17 6.11 0 1.14-.33 2.25-.94 3.23l-.56.89-.79.63c-1.11.89-2.45 1.36-3.88 1.36-3.41 0-6.17-2.74-6.17-6.11s2.76-6.11 6.17-6.11z" fill-rule="evenodd">
  </path>
</svg>
